<?xml version="1.0" encoding="UTF-8"?>
<svg xmlns="http://www.w3.org/2000/svg" xmlns:xlink="http://www.w3.org/1999/xlink" version="1.1" width="59px" height="70px" style="shape-rendering:geometricPrecision; text-rendering:geometricPrecision; image-rendering:optimizeQuality; fill-rule:evenodd; clip-rule:evenodd">
  <g>
    <path style="opacity:0.885" fill="#fffefe" d="M 19.5,-0.5 C 22.1667,-0.5 24.8333,-0.5 27.5,-0.5C 28.5,2.16667 29.5,2.16667 30.5,-0.5C 34.1667,-0.5 37.8333,-0.5 41.5,-0.5C 43.5078,1.26762 45.6744,2.93429 48,4.5C 48.711,6.89906 48.5443,9.23239 47.5,11.5C 48.1667,13.5 49.5,14.8333 51.5,15.5C 52.48,18.0865 52.8134,20.7531 52.5,23.5C 48.9668,23.4947 45.8002,22.4947 43,20.5C 42.3333,21.5 42.3333,22.5 43,23.5C 46.4596,24.8863 49.9596,25.2196 53.5,24.5C 56.1291,25.7908 57.7957,27.7908 58.5,30.5C 58.5,32.5 58.5,34.5 58.5,36.5C 55.8714,37.9598 53.3714,39.6265 51,41.5C 49.5272,41.0969 48.1939,40.4303 47,39.5C 44.791,41.7064 42.291,42.0398 39.5,40.5C 35.8573,44.1183 33.5239,48.4516 32.5,53.5C 32.9709,59.244 34.6375,64.5773 37.5,69.5C 32.1667,69.5 26.8333,69.5 21.5,69.5C 22.9361,68.5714 24.2695,67.4048 25.5,66C 24.3463,65.0862 24.513,64.2529 26,63.5C 27.1417,56.4485 26.1417,50.1151 23,44.5C 20.9031,45.991 18.5697,46.991 16,47.5C 13.9978,45.497 12.4978,43.1636 11.5,40.5C 7.17076,43.4105 3.17076,43.0771 -0.5,39.5C -0.5,38.5 -0.5,37.5 -0.5,36.5C 0.28913,36.2172 0.955796,35.7172 1.5,35C 0.0283765,31.4482 1.36171,29.7815 5.5,30C 7.41359,28.5867 8.74693,26.7534 9.5,24.5C 5.89729,23.9679 2.56396,22.9679 -0.5,21.5C -0.5,21.1667 -0.5,20.8333 -0.5,20.5C 2.22556,16.4495 5.89223,13.4495 10.5,11.5C 11.086,11.7093 11.586,12.0426 12,12.5C 11.6557,10.7424 11.1557,8.90909 10.5,7C 10.8333,6.16667 11.1667,5.33333 11.5,4.5C 14.568,3.30868 17.2346,1.64201 19.5,-0.5 Z M 34.5,16.5 C 35.9473,17.6222 36.9473,19.1222 37.5,21C 36.5838,21.3742 35.7504,21.8742 35,22.5C 34.5045,20.5273 34.3379,18.5273 34.5,16.5 Z M 25.5,21.5 C 23.3927,20.6996 21.2261,20.0329 19,19.5C 11.9541,20.6586 11.9541,19.992 19,17.5C 21.9238,17.7071 24.0905,19.0404 25.5,21.5 Z M 25.5,21.5 C 29.4453,23.2932 30.2786,25.9598 28,29.5C 27.8383,26.883 27.005,24.2163 25.5,21.5 Z M 34.5,28.5 C 35.5,28.5 36.5,28.5 37.5,28.5C 37.5,29.5 37.5,30.5 37.5,31.5C 36.5,31.5 35.5,31.5 34.5,31.5C 34.5,30.5 34.5,29.5 34.5,28.5 Z M 36.5,37.5 C 33.3529,42.4683 32.8529,41.8016 35,35.5C 35.2784,36.4158 35.7784,37.0825 36.5,37.5 Z M 26.5,42.5 C 28.3442,43.2039 28.8442,44.5372 28,46.5C 27.2086,45.255 26.7086,43.9217 26.5,42.5 Z"></path>
  </g>
</svg>
